<svg width="272" height="78" viewBox="0 0 272 78" fill="none" xmlns="http://www.w3.org/2000/svg">
<path d="M28.0734 53.641H19.5825L23.1013 37.0599L14.0367 53.641H8.83509L7.11397 36.4841L3.44224 53.641H0L5.16337 29.2683H14.9164L16.1021 43.0091L23.4455 29.2683H33.275L28.0734 53.641Z" fill="white"/>
<path d="M31.5061 53.641L36.6695 29.2683H46.9579C48.5388 29.2683 49.9157 29.4346 51.0886 29.7673C52.2871 30.0743 53.2687 30.5989 54.0337 31.3409C54.8241 32.083 55.4106 33.0553 55.793 34.258C56.201 35.4606 56.405 36.9319 56.405 38.6719C56.405 40.5399 56.1628 42.3694 55.6783 44.1606C55.2193 45.9517 54.4416 47.551 53.3452 48.9583C52.2488 50.3657 50.8082 51.5043 49.0233 52.3743C47.2639 53.2187 45.0838 53.641 42.483 53.641H31.5061ZM41.9858 50.9542C42.8273 50.9542 43.5667 50.6088 44.2042 49.9179C44.8671 49.2014 45.4281 48.3058 45.887 47.2311C46.3715 46.1309 46.7667 44.9282 47.0727 43.6232C47.4042 42.2926 47.6591 41.0132 47.8376 39.785C48.0416 38.5568 48.1819 37.4565 48.2584 36.4841C48.3603 35.5118 48.4113 34.8209 48.4113 34.4115C48.4113 33.6183 48.2456 33.0042 47.9141 32.5692C47.6082 32.1086 47.0599 31.8783 46.2695 31.8783H44.4336L40.3412 50.9542H41.9858Z" fill="white"/>
<path d="M76.9177 53.641H67.9679L67.4324 47.5382H60.3567L57.6412 53.641H53.9312L65.2141 29.2683H74.2787L76.9177 53.641ZM61.6189 44.7363H67.1647L66.285 34.2964L61.6189 44.7363Z" fill="white"/>
<path d="M121.512 36.5113C121.589 36.138 121.628 35.6279 121.628 34.981C121.628 34.6077 121.602 34.2469 121.55 33.8986C121.499 33.5253 121.408 33.2019 121.278 32.9281C121.148 32.6296 120.954 32.4056 120.694 32.2563C120.435 32.0821 120.097 31.995 119.682 31.995C119.215 31.995 118.787 32.0946 118.397 32.2936C118.008 32.4927 117.658 32.754 117.346 33.0774C117.061 33.376 116.827 33.7368 116.646 34.1598C116.49 34.558 116.412 34.981 116.412 35.4289C116.412 36.0758 116.581 36.5735 116.918 36.9218C117.282 37.2702 117.749 37.5563 118.32 37.7803C118.891 38.0042 119.539 38.1908 120.266 38.3401C120.993 38.4894 121.745 38.6636 122.524 38.8627C123.172 39.0369 123.821 39.2608 124.47 39.5345C125.119 39.8082 125.69 40.1815 126.183 40.6542C126.702 41.1021 127.117 41.6993 127.428 42.4458C127.74 43.1674 127.895 44.0756 127.895 45.1705C127.895 46.7381 127.571 48.0569 126.922 49.1268C126.273 50.1968 125.378 51.0677 124.236 51.7395C123.095 52.4113 121.732 52.8965 120.149 53.1951C118.592 53.4937 116.892 53.643 115.05 53.643C113.181 53.643 111.65 53.5311 110.457 53.3071C109.289 53.0583 108.368 52.797 107.693 52.5233C106.888 52.1998 106.292 51.8266 105.902 51.4036L107.226 46.2902H114.077C114.051 46.5141 114.025 46.8252 113.999 47.2233C113.973 47.5965 113.96 47.8951 113.96 48.1191C113.96 48.4177 113.999 48.7287 114.077 49.0522C114.155 49.3756 114.271 49.6742 114.427 49.9479C114.609 50.2217 114.855 50.4456 115.167 50.6198C115.478 50.794 115.867 50.881 116.334 50.881C116.853 50.881 117.308 50.7691 117.697 50.5451C118.112 50.3212 118.449 50.0475 118.709 49.724C118.994 49.3756 119.202 49.0024 119.332 48.6043C119.487 48.1813 119.565 47.7707 119.565 47.3726C119.565 46.8252 119.423 46.3648 119.137 45.9916C118.878 45.6183 118.514 45.3073 118.047 45.0585C117.58 44.7848 117.035 44.5608 116.412 44.3866C115.815 44.1876 115.193 43.9885 114.544 43.7895C113.921 43.6153 113.259 43.4038 112.559 43.155C111.884 42.9061 111.261 42.5578 110.69 42.1099C110.119 41.662 109.639 41.1021 109.25 40.4303C108.887 39.7336 108.705 38.8502 108.705 37.7803C108.705 36.1878 109.12 34.8566 109.951 33.7866C110.807 32.6918 111.871 31.8084 113.143 31.1366C114.44 30.4648 115.854 29.992 117.385 29.7183C118.916 29.4197 120.37 29.2704 121.745 29.2704C123.562 29.2704 125.119 29.4819 126.416 29.9049C127.74 30.303 128.739 30.7758 129.413 31.3232L127.973 36.5113H121.512Z" fill="white"/>
<path d="M149.846 53.3444H141.438L143.774 42.7817H138.986L136.65 53.3444H128.242L133.497 29.6436H141.944L139.648 39.9451H144.396L146.693 29.6436H155.179L149.846 53.3444Z" fill="white"/>
<path d="M161.797 53.3444H153.389L158.644 29.6436H167.091L161.797 53.3444Z" fill="white"/>
<path d="M177.802 43.1176C178.581 43.1176 179.229 42.8066 179.748 42.1845C180.293 41.5625 180.734 40.8035 181.072 39.9078C181.435 39.012 181.695 38.0789 181.85 37.1084C182.006 36.138 182.084 35.292 182.084 34.5704C182.084 33.8986 181.967 33.3387 181.733 32.8908C181.5 32.4181 180.994 32.1817 180.215 32.1817H178.464L176.011 43.1176H177.802ZM175.466 45.5064L173.715 53.3444H165.307L170.562 29.6436H179.554C181.033 29.6436 182.382 29.7183 183.602 29.8676C184.822 30.0169 185.873 30.3155 186.755 30.7634C187.637 31.2112 188.325 31.8582 188.818 32.7042C189.311 33.5253 189.558 34.6326 189.558 36.026C189.558 37.32 189.337 38.5516 188.896 39.7211C188.481 40.8657 187.793 41.8735 186.833 42.7444C185.899 43.5904 184.679 44.2622 183.174 44.7599C181.669 45.2575 179.839 45.5064 177.685 45.5064H175.466Z" fill="white"/>
<path d="M200.364 43.1176C201.142 43.1176 201.791 42.8066 202.31 42.1845C202.855 41.5625 203.296 40.8035 203.633 39.9078C203.997 39.012 204.256 38.0789 204.412 37.1084C204.568 36.138 204.646 35.292 204.646 34.5704C204.646 33.8986 204.529 33.3387 204.295 32.8908C204.062 32.4181 203.556 32.1817 202.777 32.1817H201.025L198.573 43.1176H200.364ZM198.028 45.5064L196.276 53.3444H187.869L193.124 29.6436H202.115C203.595 29.6436 204.944 29.7183 206.164 29.8676C207.383 30.0169 208.434 30.3155 209.317 30.7634C210.199 31.2112 210.887 31.8582 211.38 32.7042C211.873 33.5253 212.119 34.6326 212.119 36.026C212.119 37.32 211.899 38.5516 211.457 39.7211C211.042 40.8657 210.355 41.8735 209.394 42.7444C208.46 43.5904 207.241 44.2622 205.735 44.7599C204.23 45.2575 202.401 45.5064 200.247 45.5064H198.028Z" fill="white"/>
<path d="M218.838 53.3444H210.43L215.685 29.6436H224.132L218.838 53.3444Z" fill="white"/>
<path d="M243.096 53.3444H233.987L229.666 36.2127L225.851 53.3444H222.348L227.603 29.6436H236.906L240.994 46.9993L244.847 29.6436H248.428L243.096 53.3444Z" fill="white"/>
<path d="M260.439 42.5204H270.521L268.263 53.3444H263.67L262.93 50.9557H262.775C262.1 51.7022 261.295 52.3367 260.361 52.8592C259.453 53.3818 258.259 53.643 256.78 53.643C255.638 53.643 254.535 53.4688 253.471 53.1205C252.433 52.7472 251.499 52.1749 250.669 51.4036C249.864 50.6073 249.215 49.5747 248.722 48.3057C248.229 47.0367 247.983 45.5064 247.983 43.7148C247.983 41.774 248.294 39.9326 248.917 38.1908C249.54 36.4491 250.474 34.9188 251.72 33.6C252.965 32.2563 254.522 31.1988 256.391 30.4274C258.259 29.6561 260.439 29.2704 262.93 29.2704C264.851 29.2704 266.524 29.4819 267.952 29.9049C269.379 30.3279 270.728 30.8007 272 31.3232L270.521 38.5641H263.942C263.968 38.2904 264.007 37.9669 264.059 37.5937C264.111 37.2204 264.15 36.8347 264.176 36.4366C264.202 36.0136 264.228 35.603 264.254 35.2049C264.28 34.8068 264.293 34.4584 264.293 34.1598C264.293 33.9608 264.28 33.7368 264.254 33.488C264.228 33.2143 264.163 32.953 264.059 32.7042C263.955 32.4554 263.8 32.2563 263.592 32.107C263.384 31.9328 263.086 31.8457 262.697 31.8457C262.022 31.8457 261.399 32.1195 260.828 32.6669C260.283 33.1894 259.79 33.8986 259.349 34.7944C258.908 35.6653 258.519 36.6606 258.181 37.7803C257.87 38.9 257.597 40.0446 257.364 41.2141C257.156 42.3587 256.988 43.4909 256.858 44.6106C256.754 45.7054 256.702 46.6634 256.702 47.4845C256.702 47.7334 256.715 48.0444 256.741 48.4177C256.767 48.7909 256.845 49.1641 256.975 49.5374C257.13 49.8857 257.338 50.1968 257.597 50.4705C257.883 50.7193 258.285 50.8437 258.804 50.8437C259.661 50.8437 260.491 50.3958 261.295 49.5001C262.1 48.6043 262.71 47.1113 263.125 45.0212H259.855L260.439 42.5204Z" fill="white"/>
<path d="M92.4577 41.0932C92.6852 57.9127 78.8981 65.7582 72.2606 67.5785C81.648 65.0041 95.8712 56.3837 95.8712 41.0932C95.8712 34.8131 94.7334 25.9516 84.4926 18.1574C75.7931 11.5363 63.545 10.1698 57.333 9.97066C57.2351 9.96753 57.1433 10.001 57.0704 10.0636L46.8736 18.8208C46.7529 18.9245 46.863 19.115 47.0192 19.0734C53.5972 17.3216 59.6752 17.0739 66.2868 17.3383C73.114 17.6113 92.1991 21.98 92.4577 41.0932Z" fill="white"/>
<path d="M96.8747 41.8963C96.5847 64.5378 114.152 75.0989 122.609 77.5493C110.648 74.0838 92.5252 62.4795 92.5252 41.8963C92.5252 33.4424 93.975 21.5135 107.023 11.0215C118.117 2.1009 133.74 0.265857 141.649 0.000239514C141.761 -0.00350754 141.865 0.0368381 141.949 0.112321L154.878 11.8434C155.05 12 154.893 12.2886 154.67 12.2262C146.327 9.89364 138.611 9.56426 130.221 9.91878C121.522 10.2863 97.2042 16.1673 96.8747 41.8963Z" fill="#3579F4"/>
</svg>
