<svg width="256" height="74" viewBox="0 0 256 74" fill="none" xmlns="http://www.w3.org/2000/svg">
<path d="M26.4221 50.8029H18.4307L21.7425 35.0999L13.2111 50.8029H8.31542L6.69553 34.5547L3.23977 50.8029H0L4.85966 27.7209H14.039L15.1549 40.7341L22.0665 27.7209H31.3178L26.4221 50.8029Z" fill="#18162D"/>
<path d="M29.6529 50.8029L34.5126 27.7209H44.1959C45.6838 27.7209 46.9797 27.8785 48.0836 28.1935C49.2115 28.4843 50.1355 28.9811 50.8554 29.6838C51.5994 30.3866 52.1513 31.3074 52.5113 32.4464C52.8953 33.5853 53.0873 34.9787 53.0873 36.6266C53.0873 38.3956 52.8593 40.1283 52.4033 41.8246C51.9713 43.5209 51.2394 45.0355 50.2075 46.3683C49.1755 47.7011 47.8196 48.7795 46.1398 49.6034C44.4839 50.4031 42.432 50.8029 39.9842 50.8029H29.6529ZM39.5162 48.2584C40.3082 48.2584 41.0041 47.9313 41.6041 47.277C42.228 46.5985 42.756 45.7503 43.188 44.7325C43.6439 43.6905 44.0159 42.5516 44.3039 41.3157C44.6159 40.0556 44.8558 38.8439 45.0238 37.6807C45.2158 36.5175 45.3478 35.4755 45.4198 34.5547C45.5158 33.6338 45.5638 32.9795 45.5638 32.5918C45.5638 31.8406 45.4078 31.259 45.0958 30.847C44.8079 30.4108 44.2919 30.1927 43.5479 30.1927H41.8201L37.9683 48.2584H39.5162Z" fill="#18162D"/>
<path d="M72.3934 50.8029H63.97L63.4661 45.0233H56.8065L54.2507 50.8029H50.759L61.3782 27.7209H69.9096L72.3934 50.8029ZM57.9945 42.3698H63.2141L62.3861 32.4827L57.9945 42.3698Z" fill="#18162D"/>
<path d="M114.363 34.5786C114.436 34.2251 114.473 33.7421 114.473 33.1294C114.473 32.7759 114.448 32.4342 114.4 32.1043C114.351 31.7508 114.265 31.4445 114.143 31.1853C114.021 30.9025 113.838 30.6904 113.594 30.549C113.349 30.384 113.032 30.3016 112.641 30.3016C112.201 30.3016 111.798 30.3958 111.432 30.5843C111.066 30.7729 110.736 31.0203 110.443 31.3266C110.174 31.6094 109.954 31.9511 109.783 32.3517C109.637 32.7288 109.564 33.1294 109.564 33.5535C109.564 34.1662 109.722 34.6375 110.04 34.9674C110.382 35.2974 110.821 35.5684 111.359 35.7804C111.896 35.9925 112.507 36.1693 113.191 36.3107C113.874 36.452 114.583 36.617 115.315 36.8055C115.926 36.9705 116.537 37.1826 117.147 37.4418C117.758 37.701 118.295 38.0545 118.759 38.5022C119.248 38.9264 119.639 39.4919 119.932 40.1989C120.225 40.8823 120.371 41.7424 120.371 42.7793C120.371 44.2639 120.066 45.5128 119.455 46.5261C118.845 47.5394 118.002 48.3642 116.927 49.0004C115.853 49.6367 114.571 50.0962 113.081 50.379C111.615 50.6618 110.015 50.8032 108.281 50.8032C106.523 50.8032 105.082 50.6971 103.958 50.485C102.859 50.2494 101.992 50.0019 101.357 49.7427C100.6 49.4364 100.038 49.0829 99.6719 48.6823L100.918 43.8397H107.365C107.341 44.0518 107.317 44.3463 107.292 44.7234C107.268 45.0769 107.256 45.3596 107.256 45.5717C107.256 45.8545 107.292 46.1491 107.365 46.4554C107.439 46.7618 107.549 47.0445 107.695 47.3037C107.866 47.563 108.098 47.7751 108.391 47.94C108.684 48.105 109.051 48.1874 109.49 48.1874C109.979 48.1874 110.406 48.0814 110.773 47.8693C111.163 47.6572 111.481 47.398 111.725 47.0917C111.994 46.7618 112.189 46.4083 112.311 46.0312C112.458 45.6306 112.531 45.2418 112.531 44.8648C112.531 44.3463 112.397 43.9104 112.128 43.5569C111.884 43.2034 111.542 42.9089 111.102 42.6732C110.663 42.414 110.15 42.2019 109.564 42.037C109.002 41.8484 108.416 41.6599 107.805 41.4714C107.219 41.3064 106.596 41.1061 105.937 40.8705C105.302 40.6348 104.715 40.3049 104.178 39.8808C103.641 39.4566 103.189 38.9264 102.823 38.2901C102.481 37.6303 102.31 36.7937 102.31 35.7804C102.31 34.2723 102.7 33.0115 103.482 31.9982C104.288 30.9614 105.289 30.1248 106.486 29.4886C107.707 28.8523 109.038 28.4046 110.48 28.1454C111.921 27.8626 113.288 27.7212 114.583 27.7212C116.292 27.7212 117.758 27.9215 118.979 28.3221C120.225 28.6991 121.165 29.1469 121.8 29.6653L120.445 34.5786H114.363Z" fill="#18162D"/>
<path d="M141.031 50.5204H133.117L135.316 40.517H130.809L128.611 50.5204H120.698L125.644 28.0747H133.594L131.432 37.8306H135.902L138.063 28.0747H146.05L141.031 50.5204Z" fill="#18162D"/>
<path d="M152.279 50.5204H144.365L149.311 28.0747H157.261L152.279 50.5204Z" fill="#18162D"/>
<path d="M167.342 40.8351C168.075 40.8351 168.686 40.5406 169.174 39.9515C169.687 39.3623 170.102 38.6436 170.42 37.7953C170.762 36.9469 171.006 36.0632 171.153 35.1442C171.299 34.2251 171.372 33.4239 171.372 32.7405C171.372 32.1043 171.262 31.5741 171.043 31.1499C170.823 30.7022 170.347 30.4783 169.614 30.4783H167.965L165.657 40.8351H167.342ZM165.144 43.0974L163.496 50.5204H155.582L160.528 28.0747H168.991C170.383 28.0747 171.653 28.1454 172.801 28.2868C173.949 28.4281 174.938 28.7109 175.769 29.1351C176.599 29.5593 177.246 30.172 177.71 30.9732C178.174 31.7508 178.407 32.7995 178.407 34.1191C178.407 35.3445 178.199 36.511 177.784 37.6185C177.393 38.7025 176.746 39.6569 175.842 40.4817C174.963 41.2829 173.815 41.9191 172.398 42.3904C170.982 42.8617 169.26 43.0974 167.233 43.0974H165.144Z" fill="#18162D"/>
<path d="M188.577 40.8351C189.31 40.8351 189.92 40.5406 190.409 39.9515C190.922 39.3623 191.337 38.6436 191.654 37.7953C191.996 36.9469 192.241 36.0632 192.387 35.1442C192.534 34.2251 192.607 33.4239 192.607 32.7405C192.607 32.1043 192.497 31.5741 192.277 31.1499C192.057 30.7022 191.581 30.4783 190.848 30.4783H189.2L186.892 40.8351H188.577ZM186.379 43.0974L184.73 50.5204H176.817L181.763 28.0747H190.226C191.618 28.0747 192.888 28.1454 194.036 28.2868C195.184 28.4281 196.173 28.7109 197.003 29.1351C197.834 29.5593 198.481 30.172 198.945 30.9732C199.409 31.7508 199.641 32.7995 199.641 34.1191C199.641 35.3445 199.434 36.511 199.018 37.6185C198.628 38.7025 197.98 39.6569 197.077 40.4817C196.197 41.2829 195.049 41.9191 193.633 42.3904C192.216 42.8617 190.494 43.0974 188.467 43.0974H186.379Z" fill="#18162D"/>
<path d="M205.965 50.5204H198.051L202.997 28.0747H210.947L205.965 50.5204Z" fill="#18162D"/>
<path d="M228.795 50.5204H220.223L216.156 34.2958L212.566 50.5204H209.268L214.214 28.0747H222.97L226.817 44.5113L230.444 28.0747H233.815L228.795 50.5204Z" fill="#18162D"/>
<path d="M245.119 40.2696H254.608L252.483 50.5204H248.16L247.464 48.2581H247.317C246.682 48.9651 245.925 49.566 245.046 50.0609C244.191 50.5557 243.067 50.8032 241.675 50.8032C240.6 50.8032 239.562 50.6382 238.561 50.3083C237.584 49.9548 236.705 49.4128 235.923 48.6823C235.166 47.9282 234.555 46.9503 234.091 45.7485C233.627 44.5466 233.395 43.0974 233.395 41.4007C233.395 39.5626 233.688 37.8188 234.275 36.1693C234.861 34.5197 235.74 33.0705 236.912 31.8215C238.085 30.549 239.55 29.5475 241.309 28.817C243.067 28.0864 245.119 27.7212 247.464 27.7212C249.271 27.7212 250.846 27.9215 252.19 28.3221C253.533 28.7227 254.803 29.1704 256 29.6653L254.608 36.5227H248.416C248.441 36.2635 248.477 35.9572 248.526 35.6037C248.575 35.2502 248.611 34.885 248.636 34.5079C248.66 34.1073 248.685 33.7185 248.709 33.3415C248.734 32.9644 248.746 32.6345 248.746 32.3517C248.746 32.1632 248.734 31.9511 248.709 31.7155C248.685 31.4563 248.624 31.2088 248.526 30.9732C248.428 30.7375 248.282 30.549 248.086 30.4076C247.891 30.2427 247.61 30.1602 247.244 30.1602C246.609 30.1602 246.023 30.4194 245.485 30.9378C244.972 31.4327 244.508 32.1043 244.093 32.9526C243.678 33.7774 243.311 34.72 242.994 35.7804C242.701 36.8409 242.444 37.9249 242.225 39.0324C242.029 40.1164 241.87 41.1886 241.748 42.249C241.651 43.2859 241.602 44.1932 241.602 44.9708C241.602 45.2065 241.614 45.501 241.638 45.8545C241.663 46.208 241.736 46.5614 241.858 46.9149C242.005 47.2448 242.2 47.5394 242.444 47.7986C242.713 48.0343 243.092 48.1521 243.58 48.1521C244.386 48.1521 245.168 47.7279 245.925 46.8796C246.682 46.0312 247.256 44.6173 247.647 42.6379H244.569L245.119 40.2696Z" fill="#18162D"/>
<path d="M87.0175 38.9175C87.2317 54.8463 74.2556 62.2763 68.0085 64.0002C76.8437 61.5622 90.2303 53.3982 90.2303 38.9175C90.2303 32.97 89.1594 24.5777 79.521 17.1963C71.3332 10.9258 59.8055 9.63164 53.9589 9.44306C53.8668 9.44009 53.7804 9.47178 53.7118 9.53105L44.1147 17.8245C44.0011 17.9227 44.1048 18.1032 44.2518 18.0638C50.4428 16.4047 56.1634 16.1701 62.3861 16.4205C68.8117 16.6791 86.7742 20.8165 87.0175 38.9175Z" fill="#18162D"/>
<path d="M91.1755 39.6776C90.9026 61.1201 107.436 71.122 115.396 73.4426C104.139 70.1606 87.0818 59.1708 87.0818 39.6776C87.0818 31.6715 88.4464 20.3743 100.727 10.4378C111.169 1.98965 125.873 0.251778 133.316 0.00022683C133.421 -0.0033218 133.52 0.0348873 133.598 0.106373L145.767 11.2162C145.929 11.3645 145.781 11.6379 145.571 11.5788C137.719 9.36972 130.457 9.05778 122.56 9.39353C114.373 9.74162 91.4856 15.3111 91.1755 39.6776Z" fill="#3579F4"/>
</svg>
